<svg width="24" height="24" viewBox="0 0 24 24" fill="none" xmlns="http://www.w3.org/2000/svg">
<g clip-path="url(#clip0_1_109)">
<circle cx="12" cy="12" r="11.5" fill="#171717" stroke="white"/>
<path d="M19.0064 7.58781C18.7506 7.37415 18.4456 7.08232 17.8898 7.00936C17.3683 6.9364 16.8371 7.3064 16.478 7.55133C16.1189 7.79626 15.4401 8.51542 15.1597 8.7343C14.8793 8.95317 14.1612 9.15642 13.0052 9.89121C11.8492 10.626 7.31395 13.7111 7.31395 13.7111L8.4945 13.7267L3.23119 16.5982H3.75752L3 17.2079C3 17.2079 3.66898 17.3955 4.22975 17.0203V17.1922C4.22975 17.1922 10.4965 14.5762 11.7066 15.2536L10.9688 15.4829C11.0327 15.4829 12.2231 15.5663 12.2231 15.5663C12.252 15.8275 12.3348 16.0787 12.4658 16.302C12.5967 16.5254 12.7725 16.7155 12.9806 16.8587C13.6988 17.359 13.7135 17.6352 13.7135 17.6352C13.7135 17.6352 13.3397 17.7968 13.3397 18C13.3397 18 13.8906 17.8228 14.4022 17.8384C14.7269 17.8515 15.0489 17.9057 15.3614 18C15.3614 18 15.322 17.7811 14.8252 17.6352C14.3284 17.4893 13.8365 16.916 13.5955 16.6034C13.4479 16.4043 13.3516 16.168 13.3163 15.9177C13.2809 15.6674 13.3076 15.4116 13.3938 15.1755C13.566 14.7012 14.1661 14.4407 15.4057 13.7632C16.8666 12.9607 17.2011 12.3666 17.4077 11.9028C17.6143 11.439 17.9193 10.5166 18.0914 10.084C18.3079 9.52642 18.5735 9.22937 18.7948 9.05219C19.0162 8.875 20 8.48416 20 8.48416C20 8.48416 19.2474 7.79105 19.0064 7.58781Z" fill="white"/>
</g>
<defs>
<clipPath id="clip0_1_109">
<rect width="24" height="24" fill="white"/>
</clipPath>
</defs>
</svg>
