<svg width="40" height="24" viewBox="0 0 40 24" fill="none" xmlns="http://www.w3.org/2000/svg">
<g clip-path="url(#clip0_339_79)">
<path d="M12 0.766663C18.204 0.766663 23.2333 5.796 23.2333 12C23.2333 18.204 18.204 23.2333 12 23.2333C5.796 23.2333 0.766663 18.204 0.766663 12C0.766663 5.796 5.796 0.766663 12 0.766663Z" fill="#E6007A" stroke="white"/>
<mask id="mask0_339_79" style="mask-type:luminance" maskUnits="userSpaceOnUse" x="5" y="5" width="14" height="14">
<path d="M5.33331 5.33334H18.6666V18.6667H5.33331V5.33334Z" fill="white"/>
</mask>
<g mask="url(#mask0_339_79)">
<path d="M11.9995 8.13014C13.4117 8.13014 14.5563 7.50401 14.5563 6.73174C14.5563 5.95948 13.4117 5.33334 12 5.33334C10.5877 5.33334 9.44321 5.95948 9.44321 6.73174C9.44321 7.50401 10.5872 8.13014 11.9995 8.13014ZM11.9995 18.6656C13.4117 18.6656 14.5563 18.0395 14.5563 17.2672C14.5563 16.4955 13.4117 15.8693 11.9995 15.8693C10.5872 15.8693 9.44267 16.4955 9.44267 17.2672C9.44267 18.0395 10.5872 18.6656 11.9995 18.6656ZM8.43627 10.0656C9.14241 8.91574 9.13761 7.67041 8.42561 7.28374C7.71414 6.89761 6.56481 7.51628 5.85921 8.66614C5.15307 9.81601 5.15734 11.0613 5.86934 11.448C6.58081 11.8341 7.73067 11.2155 8.43627 10.0656ZM18.1387 15.3328C18.8448 14.1829 18.8405 12.9381 18.1296 12.5515C17.4181 12.1653 16.2693 12.7845 15.5632 13.9344C14.8571 15.0843 14.8613 16.3291 15.5728 16.7157C16.2837 17.1019 17.4331 16.4827 18.1387 15.3328ZM8.42667 16.7152C9.13814 16.3291 9.14294 15.0832 8.43681 13.9339C7.73067 12.784 6.58081 12.1648 5.86934 12.5515C5.15787 12.9376 5.15307 14.1835 5.85921 15.3328C6.56534 16.4827 7.71521 17.1019 8.42667 16.7152ZM18.1301 11.448C18.8416 11.0619 18.8459 9.81708 18.1397 8.66721C17.4336 7.51734 16.2843 6.89814 15.5733 7.28428C14.8619 7.67041 14.8581 8.91521 15.5637 10.0651C16.2699 11.2155 17.4192 11.8341 18.1301 11.448Z" fill="white"/>
</g>
</g>
<g clip-path="url(#clip1_339_79)">
<circle cx="28" cy="12" r="11.5" fill="#3458B0" stroke="#071C75"/>
<g clip-path="url(#clip2_339_79)">
<path d="M34.7539 18H25.2649C25.2197 17.9999 25.1754 17.9874 25.1369 17.9639L21.7064 15.866C21.6612 15.8384 21.6264 15.7969 21.6072 15.748C21.588 15.699 21.5855 15.6452 21.5999 15.5946C21.6144 15.5441 21.6451 15.4996 21.6874 15.4679C21.7297 15.4362 21.7813 15.419 21.8343 15.419H31.3246C31.3699 15.4191 31.4144 15.4316 31.453 15.455L34.8818 17.5516C34.9276 17.579 34.963 17.6205 34.9826 17.6697C35.0023 17.7189 35.005 17.7732 34.9905 17.8241C34.9759 17.8751 34.9449 17.9199 34.9022 17.9517C34.8594 17.9834 34.8073 18.0004 34.7539 18ZM25.3324 17.516H33.8947L31.2557 15.9025H22.6931L25.3324 17.516ZM34.163 9.57972H24.6727C24.6275 9.57964 24.5832 9.56716 24.5447 9.54364L21.1155 7.44704C21.0703 7.4194 21.0355 7.37793 21.0163 7.32892C20.9971 7.27991 20.9946 7.22603 21.0091 7.17547C21.0236 7.12491 21.0544 7.08042 21.0968 7.04875C21.1392 7.01708 21.1908 6.99997 21.2439 7H30.7342C30.7795 6.99999 30.824 7.01249 30.8626 7.03608L34.2914 9.13268C34.3365 9.1603 34.3713 9.20173 34.3905 9.2507C34.4097 9.29967 34.4123 9.3535 34.3978 9.40404C34.3833 9.45458 34.3526 9.49907 34.3103 9.53077C34.2681 9.56248 34.2165 9.57966 34.1634 9.57972H34.163ZM24.742 9.09572H33.306L30.6649 7.484H22.1026L24.742 9.09572ZM29.3077 11.451C29.0292 11.179 28.6535 11.0269 28.2623 11.0278H28.2468C27.8504 11.0297 27.471 11.1875 27.1921 11.4664C26.9132 11.7454 26.7577 12.1226 26.7596 12.5152C26.7615 12.9077 26.9209 13.2835 27.2025 13.5597C27.4842 13.8359 27.8651 13.99 28.2614 13.9881H28.2765C28.5721 13.9851 28.8601 13.8954 29.1042 13.7304C29.3483 13.5653 29.5374 13.3323 29.6478 13.0607C29.7582 12.7892 29.7848 12.4913 29.7242 12.2048C29.6637 11.9183 29.5187 11.656 29.3077 11.451Z" fill="white"/>
</g>
</g>
<defs>
<clipPath id="clip0_339_79">
<rect width="24" height="24" fill="white"/>
</clipPath>
<clipPath id="clip1_339_79">
<rect width="24" height="24" fill="white" transform="translate(16)"/>
</clipPath>
<clipPath id="clip2_339_79">
<rect width="14" height="11" fill="white" transform="translate(21 7)"/>
</clipPath>
</defs>
</svg>
