<svg width="40" height="24" viewBox="0 0 40 24" fill="none" xmlns="http://www.w3.org/2000/svg">
<g clip-path="url(#clip0_339_38)">
<circle cx="12" cy="12" r="11.5" fill="white" stroke="#FF9900"/>
<g clip-path="url(#clip1_339_38)">
<path d="M19.7341 17.9998H9.57039C9.52196 17.9996 9.47452 17.986 9.43324 17.9605L5.76109 15.6728C5.71159 15.6434 5.67314 15.5983 5.65177 15.5445C5.63041 15.4907 5.62732 15.4313 5.643 15.3755C5.65868 15.3198 5.69224 15.2709 5.73842 15.2364C5.78461 15.202 5.84081 15.184 5.89823 15.1852H16.062C16.1104 15.1851 16.1579 15.1987 16.1991 15.2245L19.8713 17.5118C19.921 17.5411 19.9597 17.5862 19.9812 17.6401C20.0027 17.694 20.0059 17.7535 19.9902 17.8094C19.9744 17.8653 19.9408 17.9143 19.8944 17.9488C19.8481 17.9833 19.7917 18.0012 19.7341 17.9998ZM9.64436 17.4725H18.8161L15.988 15.7121H6.81627L9.64436 17.4725ZM19.1016 8.81438H8.93788C8.88946 8.81423 8.84201 8.80064 8.80074 8.7751L5.12815 6.48737C5.07876 6.45803 5.04038 6.41303 5.01899 6.35938C4.99761 6.30573 4.99442 6.24645 5.00993 6.19078C5.02544 6.13511 5.05877 6.08619 5.10473 6.05164C5.15069 6.01709 5.20669 5.99886 5.264 5.99979H15.4308C15.4792 5.99994 15.5266 6.01353 15.5679 6.03908L19.2379 8.32681C19.2874 8.35619 19.3259 8.40131 19.3472 8.45509C19.3686 8.50888 19.3717 8.5683 19.356 8.62404C19.3403 8.67979 19.3068 8.72871 19.2606 8.76315C19.2144 8.7976 19.1582 8.81561 19.1008 8.81438H19.1016ZM9.01186 8.28752H18.1836L15.3555 6.52665H6.18376L9.01186 8.28752Z" fill="black"/>
<path d="M12.6817 11.8606C12.8924 11.8606 13.1706 11.8365 13.3268 11.6763C13.365 11.6416 13.3954 11.5989 13.4159 11.5512C13.4363 11.5035 13.4464 11.452 13.4453 11.4C13.4401 11.0356 13.1425 10.9068 12.8634 10.9077H12.4438L12.4464 11.8431L12.494 11.8488C12.5563 11.8562 12.619 11.8601 12.6817 11.8606ZM12.8911 12.1631L12.4481 12.1679L12.4516 13.2648H12.9002C13.229 13.2648 13.5803 13.1186 13.5812 12.7144C13.5838 12.6478 13.573 12.5813 13.5494 12.5191C13.5257 12.4569 13.4897 12.4002 13.4436 12.3525C13.2675 12.1757 12.9764 12.1626 12.8911 12.1631Z" fill="#FF9900"/>
<path d="M14.5931 10.0931C14.0884 9.6141 13.4169 9.35515 12.7241 9.37246H12.6965C11.9973 9.39642 11.3359 9.69855 10.8568 10.2129C10.3777 10.7272 10.1197 11.4119 10.1393 12.1174C10.1588 12.823 10.4543 13.4921 10.9611 13.9786C11.468 14.4651 12.145 14.7295 12.8444 14.714H12.8708C13.3942 14.6965 13.9008 14.5228 14.3264 14.2149C14.752 13.907 15.0776 13.4787 15.2619 12.9841C15.4462 12.4895 15.4811 11.9508 15.3621 11.4363C15.243 10.9217 14.9754 10.4543 14.5931 10.0931ZM13.8023 13.4206C13.6387 13.4856 13.4649 13.5206 13.2892 13.5241H13.2355L13.2312 13.5782V14.1068H12.8388V13.5201L12.4525 13.5232V14.1059H12.057L12.0562 13.5254L11.3916 13.5306V13.2687H11.6382C11.6882 13.2685 11.736 13.2483 11.7712 13.2125C11.8064 13.1767 11.8261 13.1284 11.826 13.078L11.8195 11.1002C11.8195 11.0015 11.7416 10.933 11.6309 10.933L11.3834 10.9155V10.5506H12.0549V9.94952H12.4442V10.5515H12.8336V9.94821H13.223V10.5519H13.2948C13.4293 10.5519 14.1038 10.6933 14.1055 11.2442C14.1055 11.8514 13.6011 11.9169 13.5924 11.9352L13.5656 11.9374C13.5937 11.9404 14.2526 12.0683 14.2479 12.7715C14.244 13.0762 14.0977 13.294 13.8023 13.4206Z" fill="#FF9900"/>
</g>
</g>
<g clip-path="url(#clip2_339_38)">
<circle cx="28" cy="12" r="11.5" fill="#53AE94" stroke="white"/>
<path d="M29.423 10.3653V8.63558H33.3464V6H22.6629V8.63558H26.5867V10.364C23.3978 10.5116 21 11.1484 21 11.9112C21 12.674 23.3989 13.3107 26.5867 13.4593V19H29.4239V13.4588C32.6071 13.3107 35 12.6744 35 11.9123C35 11.1502 32.6071 10.514 29.4239 10.3658M29.4239 12.9895V12.9881C29.3439 12.9933 28.9326 13.0181 28.0168 13.0181C27.2847 13.0181 26.7696 12.9972 26.5881 12.9877V12.99C23.7708 12.8642 21.6678 12.3695 21.6678 11.7777C21.6678 11.1858 23.771 10.6919 26.5881 10.5658V12.4972C26.7726 12.51 27.3004 12.5414 28.0288 12.5414C28.9037 12.5414 29.3436 12.5047 29.4244 12.4972V10.5658C32.2362 10.6921 34.3343 11.1872 34.3343 11.777C34.3343 12.3667 32.2352 12.8621 29.4244 12.9884" fill="white"/>
</g>
<defs>
<clipPath id="clip0_339_38">
<rect width="24" height="24" fill="white"/>
</clipPath>
<clipPath id="clip1_339_38">
<rect width="14" height="12" fill="white" transform="translate(5 6)"/>
</clipPath>
<clipPath id="clip2_339_38">
<rect width="24" height="24" fill="white" transform="translate(16)"/>
</clipPath>
</defs>
</svg>
