<svg width="24" height="24" viewBox="0 0 24 24" fill="none" xmlns="http://www.w3.org/2000/svg">
<g clip-path="url(#clip0_45_16)">
<circle cx="12" cy="12" r="11.5" fill="white" stroke="black"/>
<g clip-path="url(#clip1_45_16)">
<path d="M10.1333 2.33334C6.17331 3.14667 3.14665 6.12 2.33331 10.0133C1.59998 13.52 3.01331 17.44 5.83998 19.68C6.78665 20.4267 8.43998 21.24 9.66665 21.5333C10.8666 21.84 12.96 21.84 14.2 21.5467C14.72 21.4267 15.7066 21.04 16.4 20.7067C17.4533 20.1867 17.8666 19.88 18.8 18.9333C20.08 17.6533 20.7733 16.56 21.2933 15C21.6266 14.04 21.6533 13.7333 21.6666 12C21.6666 9.84 21.48 9.04 20.5866 7.32C18.64 3.61334 14.2133 1.50667 10.1333 2.33334ZM13.1866 4.61334C14 4.85334 14.8266 5.54667 15.24 6.32C15.6133 7.04 15.64 8.50667 15.28 9.24C15.1333 9.53334 14.9466 9.78667 14.8533 9.82667C14.7733 9.85334 13.5733 8.94667 12.2133 7.8C10.8533 6.65334 9.73331 5.74667 9.73331 5.77334C9.73331 5.82667 11.5333 10.8267 11.8533 11.6267C11.9733 11.96 12.0133 11.9733 12.5066 11.84C12.88 11.7467 13.2666 11.76 13.7866 11.8667C15.3333 12.1867 16.44 13.5467 16.44 15.1333C16.44 16.4933 15.9866 17.24 14.5733 18.2133C13 19.2933 12.7733 19.4 11.8 19.44C10.9866 19.48 10.7733 19.44 10.1333 19.1067C8.90665 18.4667 8.14665 17.0267 8.33331 15.7467C8.42665 15.16 8.81331 14.2133 9.02665 14.0933C9.09331 14.0533 10.24 14.9467 11.5866 16.08C12.9466 17.2133 14.0666 18.1067 14.1066 18.08C14.1333 18.0533 13.6666 16.68 13.0666 15.0267L11.9733 12.0267L11.12 12.1067C7.43998 12.4 6.06665 7.68 9.27998 5.77334C9.51998 5.64 9.91998 5.36 10.1866 5.14667C10.6666 4.77334 11.6133 4.42667 12.2133 4.41334C12.36 4.4 12.8 4.49334 13.1866 4.61334Z" fill="black"/>
</g>
</g>
<defs>
<clipPath id="clip0_45_16">
<rect width="24" height="24" fill="white"/>
</clipPath>
<clipPath id="clip1_45_16">
<rect width="20" height="20" fill="white" transform="translate(2 2)"/>
</clipPath>
</defs>
</svg>
